<?xml version="1.0" encoding="utf-8"?>
<!-- Generator: Adobe Illustrator 27.6.1, SVG Export Plug-In . SVG Version: 6.00 Build 0)  -->
<svg version="1.1"
	 id="svg2" xmlns:svg="http://www.w3.org/2000/svg" xmlns:dc="http://purl.org/dc/elements/1.1/" xmlns:rdf="http://www.w3.org/1999/02/22-rdf-syntax-ns#" xmlns:cc="http://creativecommons.org/ns#"
	 xmlns="http://www.w3.org/2000/svg" xmlns:xlink="http://www.w3.org/1999/xlink" x="0px" y="0px" viewBox="0 0 1110.7 1013.3"
	 style="enable-background:new 0 0 1110.7 1013.3;" xml:space="preserve">
<style type="text/css">
	.st0{clip-path:url(#SVGID_00000066507435068866724090000004105061852301848204_);}
	.st1{fill:none;stroke:#000000;stroke-width:2.6667;stroke-miterlimit:13.3333;}
	.st2{fill-rule:evenodd;clip-rule:evenodd;fill:none;stroke:#000000;stroke-width:2.6667;stroke-miterlimit:13.3333;}
	.st3{fill:#FF0000;stroke:#000000;stroke-width:2.6667;stroke-miterlimit:13.3333;}
</style>
<g id="g10" transform="matrix(1.3333333,0,0,-1.3333333,0,1013.3333)">
	<g id="g12">
		<g>
			<g>
				<g>
					<defs>
						<polygon id="SVGID_1_" points="0,758.3 858,754.1 858,-5.9 0,-1.7 						"/>
					</defs>
					<clipPath id="SVGID_00000088091581509521020580000008894169897761333131_">
						<use xlink:href="#SVGID_1_"  style="overflow:visible;"/>
					</clipPath>
					<g id="g14" style="clip-path:url(#SVGID_00000088091581509521020580000008894169897761333131_);">
						<g id="g20" transform="translate(660.0371,592.8647)">
							<path id="path22" class="st1" d="M25-5.9c1.3-5.7,0.8-12.8-2.8-19.3c7.3-9.3,13.1-18.9,17-28.2c6-14.1,11.4-31.1,12.5-49.5
								c10.2-5.5,19.6-13.2,27.1-21.4c10.7-11.7,15.8-28.2,27.7-38.4c3.4,9.5,4.2,23.7,2.7,34.4c-6.2,43.3-31.5,85.5-58,119
								c-27.6,34.9-61.5,65.2-99,78c-1.9-0.4-3.8-0.7-5.7-0.8c0.8-2,1.3-3.9,1.3-5.5C-29.2,40.7,18.8,22.1,25-5.9"/>
						</g>
						<g id="g24" transform="translate(407.1992,705.0093)">
							<path id="path26" class="st2" d="M25-5.9c5.2-2.6,10.4-7.4,13.3-14.4c12.9,0,25-1.7,35.5-4.8c15.2-4.4,32.3-11.4,47.5-22.8
								c11,4.5,23.3,6.9,34.6,7.4c14.5,0.6,29.1-4.9,43.3-3.8c-4,9.4-16.5,21.2-27.3,27.6c-37.8,22.2-86.5,28.8-129.2,29
								C-1.7,12.6-46.5,5.1-80-16.3c-0.7-1.5-1.6-2.9-2.5-4.3c2.4-0.6,4.4-1.5,5.8-2.7C-45.2-18.9-0.7,6.8,25-5.9"/>
						</g>
						<g id="g28" transform="translate(538.0996,670.4604)">
							<path id="path30" class="st1" d="M25-5.9C13.7-6.3,1.4-8.8-9.6-13.2C4.5-23.9,17-38.4,24.7-58.6c1.3-3.3,2.3-6.8,3.1-10.3
								c9.3,1,19,0.5,28.7-1.4c0.7,3.3,2,6.3,3.8,8.5c9.4,10.9,30.6,1.1,46.2-8c15.2-8.9,27.9-20.5,37.7-33
								c3.6,6.6,4.1,13.6,2.8,19.3c-6.2,28-54.2,46.5-77.3,68.2c0,1.7-0.4,3.6-1.3,5.6C54.1-10.8,39.5-5.2,25-5.9"/>
						</g>
						<g id="g32" transform="translate(160.0469,576.8652)">
							<path id="path34" class="st1" d="M25-5.9c5.3,2.5,12.4,3.6,19.7,1.4C50,1.7,55.7,7,61.4,11.4C75.9,22.6,94.9,34,117,38.7
								c3,13.1,9.5,26.2,17.2,36.8c8.7,11.9,22.4,19.9,30.4,32.1c-9.9,2.5-26.4,0.1-37.9-4.2C85.9,87.9,50.2,54.1,23.2,21
								C-4.9-13.5-27.2-53.1-31.5-92.6c0.9-1.9,1.6-3.9,2.2-5.9c1.6,1.1,3.2,1.8,4.7,2.2C-8.5-68.9-0.9-18.1,25-5.9"/>
						</g>
						<g id="g36" transform="translate(596.3154,515.8364)">
							<path id="path38" class="st1" d="M25-5.9c7.3,0.9,15,2.7,19.1,11.5C49,16.1,42.6,23.5,34,30.5c-7.4,6.1-19,9.7-27,16.8
								C-1.5,45.7-11,42-19.6,36c0.9-2,1.9-4,3.1-5.8C-7.3,15.4,13.2,8.8,25-5.9"/>
						</g>
						<g id="g40" transform="translate(269.2725,658.1914)">
							<path id="path42" class="st1" d="M25-5.9C17.3-16.4,10.8-29.5,7.8-42.6c14.5,3.1,30.5,3.3,47.5-1.4c5.5-1.5,10.8-3.7,16-6.2
								c0.9,1.9,2,3.8,3.2,5.8c5.7,9.4,13.6,18,22.8,25.3c-1.6,2.3-2.7,4.6-3.1,7c-2.5,14.1,18.6,24.3,35.5,30.6
								c15.5,5.7,31.5,8.2,46.5,8.2c-2.9,7-8.1,11.8-13.3,14.4C137.3,53.7,92.7,28,61.3,23.5c-1.5,1.2-3.5,2.1-5.9,2.7
								C47.5,14.1,33.7,6,25-5.9"/>
						</g>
						<g id="g44" transform="translate(578.2754,569.0532)">
							<path id="path46" class="st1" d="M25-5.9c-0.6,0.5-1.2,1.1-1.8,1.7c-5.5,5.6-9.6,23.2-6.9,35.4C6.6,33-3.1,33.6-12.4,32.6
								c3.9-16.7,4-34.8,10.8-49.8C7.1-11.2,16.6-7.5,25-5.9"/>
						</g>
						<g id="g48" transform="translate(143.6143,212.8164)">
							<path id="path50" class="st1" d="M25-5.9C14.1,23.9-20.4,62.1-13.3,89.9c1.4,5.8,5.2,11.9,11.5,16.2c-1,6.6-1.4,13-1.3,19
								c0.3,18.6,3.3,40.7,13.7,61.2C2.2,196.8-4,210.3-7.4,223c-3.7,13.8-1.5,29.1-5.5,42.6c-8.4-5.7-17.4-20.9-21.3-33
								c-13.4-41.7-9.2-90.7,0-132.4c9.5-43.4,26.7-85.6,54.8-113.5c1-0.2,2.1-0.6,3.1-0.9C23.5-10.8,23.9-8,25-5.9"/>
						</g>
						<g id="g52" transform="translate(637.8809,560.1851)">
							<path id="path54" class="st1" d="M25-5.9c9.4-19.1,9-39.8,5.4-58.7C44-59,59.6-62.4,73.8-70.2c-1.1,18.4-6.4,35.4-12.5,49.5
								c-4,9.3-9.7,19-17,28.2c-1.4-2.5-3.2-5-5.6-7.2C34.5-3.7,29.9-5.5,25-5.9"/>
						</g>
						<g id="g56" transform="translate(428.7422,606.0532)">
							<path id="path58" class="st1" d="M25-5.9c4.1,6.5,8.2,13.8,3.8,22.9c-5,10.5-14.8,10.2-25.7,8c-10.1-2-21-9.4-32.4-10.5
								c-4.5-8.5-7.9-19.6-8-31.6C-17.3-16.4,2.7,0.2,25-5.9"/>
						</g>
						<g id="g60" transform="translate(634.6953,565.9619)">
							<path id="path62" class="st1" d="M25-5.9c1.2-1.9,2.2-3.8,3.2-5.8c4.9,0.4,9.5,2.1,13.7,6.1c2.4,2.3,4.2,4.7,5.6,7.2
								C37.7,14.1,25,25.8,9.8,34.7c-15.6,9.1-36.8,18.9-46.2,8c-1.9-2.2-3.1-5.1-3.8-8.5C-13.2,29.1,12.9,13.8,25-5.9"/>
						</g>
						<g id="g64" transform="translate(129.2646,404.9258)">
							<path id="path66" class="st1" d="M25-5.9c6.7,13.1,16.4,25.4,30.5,35.7c5.1,3.8,10.8,6.8,16.7,9.5c-1.2,2.5-2.4,5.3-3.4,8.3
								c-2.2,6.2-3.6,12.8-4.4,19.7c-5.2-0.9-10.2-0.8-13.9,1c-12.9,6.3-8.7,29.3-3.8,46.7c5.8,20.6,16.5,38.6,28.8,52.5
								c-7.3,2.1-14.3,1.1-19.7-1.4C29.9,153.9,22.3,103,6.1,75.7c-1.5-0.3-3.1-1.1-4.7-2.2c4-13.6,1.8-28.8,5.5-42.6
								C10.3,18.2,16.5,4.7,25-5.9"/>
						</g>
						<g id="g68" transform="translate(615.3809,527.2964)">
							<path id="path70" class="st1" d="M25-5.9c-4.1-8.7-11.8-10.5-19.1-11.5c4.9-6.1,8.3-13.5,8.8-23.4c0.4-7.1-2.5-14.4-7.3-21.6
								C21.2-58,33.1-39.9,52.7-31.8c0.1,0,0.1,0,0.2,0.1C56.5-12.8,56.9,8,47.5,27c-14.3-1.1-30.9,9.4-47.2,10
								c-3.6,0.1-7.9-0.2-12.4-1.2c8.1-7.1,19.6-10.7,27-16.8C23.5,12,29.9,4.6,25-5.9"/>
						</g>
						<g id="g72" transform="translate(366.481,594.8921)">
							<path id="path74" class="st1" d="M25-5.9c0.1,12,3.6,23.1,8,31.6c-0.1,0-0.1,0-0.2,0C24.7,25,7.4,33.8,0.1,44.1
								C-9,36.8-16.9,28.2-22.6,18.8c-1.2-2-2.2-3.9-3.2-5.8C-10.1,5.6,4.7-4.6,21.4-5.8C22.6-5.9,23.8-5.9,25-5.9"/>
						</g>
						<g id="g76" transform="translate(576.4844,570.7368)">
							<path id="path78" class="st1" d="M25-5.9c0.6-0.6,1.2-1.1,1.8-1.7c4.6,0.9,8.8,1.3,12.4,1.2c16.3-0.6,32.9-11.1,47.2-10
								c-1,1.9-2,3.9-3.2,5.8C71.1,9,45,24.3,18.1,29.5C15.4,17.3,19.6-0.3,25-5.9"/>
						</g>
						<g id="g80" transform="translate(294.751,88.3936)">
							<path id="path82" class="st1" d="M25-5.9c-3.8,4.5-6.6,11.1-6.3,18.6c-13,5.5-24.4,12.7-33.3,20.5
								c-13,11.3-27,26.2-36.1,45.1c-12.7,0.4-25.9,3.8-37.1,8.7c-14.1,6.1-25.2,18.5-39.7,23.3c0.4-10.2,5.8-24.6,12-34.2
								c23.7-36.8,64.2-64.6,102.3-84c39.6-20.2,83-33.7,122.5-29.7c4.1,3.1,8.6,5.2,13.4,6.9C92-22.8,42.9-27.4,25-5.9"/>
						</g>
						<g id="g84" transform="translate(299.7246,127.6914)">
							<path id="path86" class="st1" d="M25-5.9C2.8,10.9-5.8,37.8-10.3,61c-2-3.1-4.3-6.1-6.9-8.9c-9.4-9.9-23.5-13.5-38.4-13
								c9.1-18.9,23-33.9,36.1-45.1c9-7.8,20.4-14.9,33.3-20.5c0.1,2.8,0.6,5.8,1.7,8.9C17.4-12.1,20.7-8.4,25-5.9"/>
						</g>
						<g id="g88" transform="translate(418.5,666.9077)">
							<path id="path90" class="st1" d="M25-5.9c22.7-5.4,39.6-21.4,52.5-37.7c0.3,1.4,0.7,2.8,1.1,4.3C82.9-25.5,95.2-15.7,110-9.7
								C94.8,1.8,77.7,8.7,62.5,13.1C52,16.2,39.9,17.9,27,17.9c1.1-2.6,1.8-5.6,2.1-8.9C29.6,3.1,27.9-1.7,25-5.9"/>
						</g>
						<g id="g92" transform="translate(472.0996,633.4604)">
							<path id="path94" class="st1" d="M25-5.9c-0.4-1.4-0.8-2.9-1.1-4.3c3.8-4.8,7.2-9.6,10.3-14.2c6.7-9.9,14-21,17.1-30.8
								C59.3-43.6,71.1-34.7,92.4-32c0.5,0.1,0.9,0.1,1.4,0.1c-0.8,3.5-1.8,7-3.1,10.3C83-1.4,70.5,13.1,56.4,23.8
								C41.6,17.7,29.3,8,25-5.9"/>
						</g>
						<g id="g96" transform="translate(228.5923,541.6138)">
							<path id="path98" class="st1" d="M25-5.9c-11.4,2.1-16.9-6-21.6-16c-2.9-6.3-4.1-14.4-6.3-22.1c3.8-9,10.5-19.1,20.1-27
								c10.6,13.6,11.7,35.1,23.7,49.5C38.1-14.5,34.5-7.6,25-5.9"/>
						</g>
						<g id="g100" transform="translate(558.707,501.9214)">
							<path id="path102" class="st1" d="M25-5.9C31.9-0.6,42.5,4.2,53.2,6.7c2.8,0.7,6.1,0.9,9.4,1.4c-11.8,14.7-32.3,21.2-41.6,36
								c-1.2,1.9-2.2,3.8-3.1,5.8c-6.3-4.4-12.1-10-16.7-17.2c-2.2-3.4-4.2-7.3-6.1-11.5C7.4,20.2,16.4,7.5,25-5.9"/>
						</g>
						<g id="g104" transform="translate(410.4795,668.3652)">
							<path id="path106" class="st1" d="M25-5.9c2.8-0.3,5.4-0.8,8-1.5c2.9,4.1,4.6,8.9,4.1,14.9c-0.3,3.3-1,6.2-2.1,8.9
								c-15,0-31-2.5-46.5-8.2c-17-6.3-38-16.4-35.5-30.6c0.4-2.3,1.5-4.7,3.1-7C-23.4-13,3.2-3.2,25-5.9"/>
						</g>
						<g id="g108" transform="translate(498.3516,584.1216)">
							<path id="path110" class="st1" d="M25-5.9c0.9-2.9,1.5-5.7,1.6-8.3c0.6-16.3-10.8-40.7-19.1-61.9
								c-6.3-16.2-20-44.1-10.7-61.3C4.6-126.1,9-113.3,16.1-99.6c7.3,14.1,20.3,35.3,33.3,38.2c2.1,0.5,4.2,0.6,6.2,0.4
								c1.9,4.2,3.9,8.2,6.1,11.5c4.6,7.1,10.5,12.8,16.7,17.2c-6.8,15-6.8,33.1-10.8,49.8c-0.5,0-0.9-0.1-1.4-0.1
								C44.8,14.6,33.1,5.8,25-5.9"/>
						</g>
						<g id="g112" transform="translate(219.0288,172.5957)">
							<path id="path114" class="st1" d="M25-5.9C18,8.7,13.8,25.6,15.1,45c0.2,3,0.6,6,1.2,9C7.8,57-0.4,61.3-8.1,66.8
								c-2-2.6-4.2-4.7-6.7-5.9c-13-6.1-28.3,11.5-38.8,26.2c-13.3,18.6-20.8,39.8-23.6,59.2c-6.4-4.2-10.1-10.4-11.5-16.2
								c-7-27.8,27.4-65.9,38.4-95.7c-1.1-2.1-1.5-5-1.4-8.2C-37.4,21.4-26.2,9-12.1,2.8C-0.9-2.1,12.3-5.4,25-5.9"/>
						</g>
						<g id="g116" transform="translate(257.4253,185.6113)">
							<path id="path118" class="st1" d="M25-5.9C27.7-3,29.9,0,32,3.1c-0.5,2.3-0.9,4.5-1.2,6.7c-2,11.5-4.1,24.1-3.1,34.3
								c-12-7.1-26.2-10.2-46.4-4.1c-1.1,0.3-2.2,0.7-3.3,1.1c-0.5-3-1-6-1.2-9c-1.3-19.4,2.9-36.3,9.9-50.9
								C1.5-19.4,15.7-15.8,25-5.9"/>
						</g>
						<g id="g120" transform="translate(432.5527,628.9585)">
							<path id="path122" class="st1" d="M25-5.9c4.4-9.1,0.3-16.4-3.8-22.9c3.9-1.1,7.8-2.8,11.8-5.4c8.8-5.8,14-17.8,16.8-31.5
								c1.4,0.6,2.6,1.4,3.7,2.3C67.1-52.1,58.1-29,63.4-5.6C50.6,10.7,33.7,26.6,11,32.1C2.7,20.5-15.7,14.2-26.2,2
								c-2.4-2.7-4.7-6.2-6.9-10.3C-21.6-7.3-10.8,0.2-0.7,2.2C10.2,4.3,20,4.6,25-5.9"/>
						</g>
						<g id="g124" transform="translate(461.0996,571.4604)">
							<path id="path126" class="st1" d="M25-5.9c-1.1-0.9-2.4-1.7-3.7-2.3c3-14.7,3.3-31.4,2.4-44.9c-0.4-5.8-1.4-12.8-2.7-20.2
								c13.2,10,17.1,28.4,23.3,42c6,13.2,10.3,26.9,18,38.1c-3.2,9.9-10.4,20.9-17.1,30.8c-3.1,4.6-6.5,9.4-10.3,14.2
								C29.5,28.5,38.6,5.4,25-5.9"/>
						</g>
						<g id="g128" transform="translate(218.877,474.312)">
							<path id="path130" class="st1" d="M25-5.9c0.7,0.7,1.3,1.5,1.9,2.2c-9.7,7.9-16.3,17.9-20.1,27c-1.1-3.7-2.4-7.3-4.4-10.5
								c-3.5-5.8-16.2-13-27.7-15c0.8-6.8,2.2-13.5,4.4-19.7c1-3,2.2-5.7,3.4-8.3C-2.3-23,14.1-17.7,25-5.9"/>
						</g>
						<g id="g132" transform="translate(588.3945,470.1074)">
							<path id="path134" class="st1" d="M25-5.9c3.3-0.6,6.4-0.3,9.4,0.7c4.8,7.2,7.6,14.6,7.3,21.6c-0.5,10-3.9,17.4-8.8,23.4
								c-3.3-0.4-6.6-0.7-9.4-1.4C12.8,36,2.2,31.3-4.7,26C4.6,11.5,13.4-3.7,25-5.9"/>
						</g>
						<g id="g136" transform="translate(374.2974,626.4702)">
							<path id="path138" class="st1" d="M25-5.9c0.1,0,0.1,0,0.2,0c2.1,4.1,4.5,7.6,6.9,10.3C42.6,16.6,61,23,69.2,34.6
								c-2.6,0.6-5.3,1.1-8,1.5c-21.8,2.7-48.4-7.1-68.9-23.5C-0.5,2.2,16.9-6.6,25-5.9"/>
						</g>
						<g id="g140" transform="translate(457.0801,504.0498)">
							<path id="path142" class="st1" d="M25-5.9c-1.7-9.4-3.9-19.4-6.1-28C14.6-51,8.8-66.9,10-80.6c9.1,3.7,17.9,10,25.1,19.1
								c1.1,1.4,2.1,2.8,3.1,4.2C28.8-40.1,42.6-12.2,48.8,4c8.2,21.2,19.6,45.6,19.1,61.9c-0.1,2.6-0.7,5.4-1.6,8.3
								c-7.7-11.2-12-24.8-18-38.1C42.1,22.5,38.2,4.1,25-5.9"/>
						</g>
						<g id="g144" transform="translate(654.0488,166.71)">
							<path id="path146" class="st1" d="M25-5.9C-0.9-24.2-28.6-67.5-57.3-68c-5.9-0.1-12.7,1.8-18.5,6.7
								c-12.4-6.6-25.1-11-36.7-13.2c-17.7-3.3-39.1-4.8-60.5,0.7c-8.5-10.1-19.9-18.6-31.3-24.4c-10.1-5.2-21.8-6.9-32.4-10.7
								c0.8-0.2,1.5-0.4,2.3-0.6c4.3-8.7,25.4-15.5,40.6-16.4c43.7-2.5,90.1,13.8,128.2,33.2C-26-72.7,10.5-45.5,30.5-11.3
								c0,1.9,0.1,3.8,0.3,5.6C28.7-6.1,26.7-6.2,25-5.9"/>
						</g>
						<g id="g148" transform="translate(504.9375,180.4648)">
							<path id="path150" class="st1" d="M25-5.9c-0.7-7.3-0.6-15.1,7-21c9.1-7.1,17.8-2.4,26.6,4.4c8.2,6.4,14.6,18,24.4,24.1
								c0.6,0.3,1.2,0.7,1.9,0.9c0.1,8.4-1.4,18.3-5.4,27.9c-2.9-0.5-5.8-1.2-8.6-2.2C53.8,22,43,2.1,25-5.9"/>
						</g>
						<g id="g152" transform="translate(547.4307,118.1035)">
							<path id="path154" class="st1" d="M25-5.9c-2.9,4.6-3.8,9.2-3.4,13.7c-27.8-8.7-55,1.5-76.6,13c0.9-3,1.6-6.1,2-9.3
								c1.7-13.1-4-25.8-13.3-36.7c21.4-5.5,42.8-4,60.5-0.7c11.6,2.2,24.3,6.5,36.7,13.2C28.7-10.9,26.7-8.6,25-5.9"/>
						</g>
						<g id="g156" transform="translate(538.5,163.8213)">
							<path id="path158" class="st1" d="M25-5.9c-8.8-6.8-17.4-11.5-26.6-4.4c-7.6,5.9-7.7,13.7-7,21C-15,7.9-22.4,6.6-31.4,8
								C-41.4,9.7-50.7,18-58.7,28.8c-0.5-0.7-0.9-1.4-1.2-2.1C-67,12-52.1-3.9-46-24.9c21.6-11.5,48.8-21.7,76.6-13
								C31.8-23.3,46-8.8,49.9,7.3c0.8,3.4,1.3,7.4,1.3,11.8c-0.7-0.3-1.3-0.6-1.9-0.9C39.6,12.1,33.2,0.5,25-5.9"/>
						</g>
						<g id="g160" transform="translate(196.6162,562.937)">
							<path id="path162" class="st1" d="M25-5.9C42.9,9.4,65.5,13.2,86.4,13.3c-0.3,0.5-0.7,1-1.1,1.5c-7.2,10.7-8,24.3-4.9,37.9
								c-22.2-4.7-41.1-16.1-55.7-27.4c-5.7-4.4-11.3-9.7-16.7-15.8c2.7-0.8,5.4-2,8.1-3.8C20.8,2.5,23.5-1.4,25-5.9"/>
						</g>
						<g id="g164" transform="translate(527.2842,244.4805)">
							<path id="path166" class="st1" d="M25-5.9C24.4-19.3,12.2-25.9-2.2-31c3.4-7.8,5.6-18.8,5.7-29.3c0-2.9-0.5-6.2-0.8-9.6
								c17.9,8,28.8,27.9,45.9,34c2.8,1,5.7,1.7,8.5,2.2c-3.1,7.4-7.6,14.6-13.9,20.9c-5.1,5-12,9.9-19.4,14.5
								C24.7-0.9,25.1-3.5,25-5.9"/>
						</g>
						<g id="g168" transform="translate(256.9556,583.5371)">
							<path id="path170" class="st1" d="M25-5.9c0.3-0.5,0.7-1,1-1.5c7.6,0,14.9-0.5,21.7-1.1c10.4-1,21.8-2.2,30.9-5
								C75.9-2.2,76.4,10,83.7,24.5c-5.2,2.5-10.5,4.7-16,6.2c-17.1,4.6-33,4.5-47.5,1.4C17,18.4,17.8,4.8,25-5.9"/>
						</g>
						<g id="g172" transform="translate(454.8066,198.5176)">
							<path id="path174" class="st1" d="M25-5.9C33-16.7,42.3-25,52.3-26.6c8.9-1.5,16.3-0.1,22.8,2.7c0.3,3.4,0.8,6.7,0.8,9.6
								C75.8-3.8,73.7,7.1,70.2,15C52.9,8.8,32.3,4.9,25-5.9"/>
						</g>
						<g id="g176" transform="translate(176.6001,336.127)">
							<path id="path178" class="st1" d="M25-5.9c-8.8-7.6-5.9-16.9-1-26.9c2.6-5.2,6.9-10.2,10.9-15.5c9.5-3,21.8-4.5,34.4-2
								c-2.7,16.2-17.1,30.1-22.1,47C40.1-1.1,32.4,0.5,25-5.9"/>
						</g>
						<g id="g180" transform="translate(237.4312,335.7998)">
							<path id="path182" class="st1" d="M25-5.9C16.7-7.6,5.6-7.5-4.6-5.5c-2.8,0.6-5.9,1.6-9,2.6c5-17,19.4-30.9,22.1-47
								c6.6,1.3,13.2,3.6,19.6,7.3c3.8,2.2,7.7,5,11.6,8.3C30.3-29.7,26.8-18.6,25-5.9"/>
						</g>
						<g id="g184" transform="translate(416.2021,569.2314)">
							<path id="path186" class="st1" d="M25-5.9c0.3,8.7,3.4,19.8,8.2,29.6c1.2,2.3,2.8,4.7,4.4,7.2C15.3,37.1-4.8,20.4-24.7,19.8
								c-0.1-6.5,0.8-13.3,3-20.1c1.4-4.4,3.6-9.1,6.1-13.9C-7.8-3,8.4-3.8,25-5.9"/>
						</g>
						<g id="g188" transform="translate(429.3223,498.2046)">
							<path id="path190" class="st1" d="M25-5.9c-0.2,20.8-13.6,47.8-13.2,70.5c0,0.2,0,0.4,0,0.6c-16.6,2-32.8,2.8-40.6-8.3
								c6.6-12.5,16-25.6,23.4-36C1.9,10.8,11.3-2.2,25-5.9"/>
						</g>
						<g id="g192" transform="translate(193.4937,560.1445)">
							<path id="path194" class="st1" d="M25-5.9c1,1,2.1,1.9,3.1,2.8C26.7,1.4,24,5.3,19.3,8.5c-2.7,1.8-5.4,3-8.1,3.8
								c-12.3-13.9-23-32-28.8-52.5c-4.9-17.4-9.1-40.4,3.8-46.7c3.7-1.8,8.7-2,13.9-1C-3.4-57.8,6.3-23.8,25-5.9"/>
						</g>
						<g id="g196" transform="translate(283.0293,338.2773)">
							<path id="path198" class="st1" d="M25-5.9c7,7.7,15.7,17.3,18.7,28.5C24.2,16.4,2.4-2.7-18.9-8c-0.5-0.1-1.1-0.3-1.6-0.4
								c1.8-12.7,5.3-23.9,14.7-28.5C5.2-27.7,16.3-15.4,25-5.9"/>
						</g>
						<g id="g200" transform="translate(310.5752,575.9224)">
							<path id="path202" class="st1" d="M25-5.9c4.4-1.4,8.3-3.1,11.3-5.4c13-9.9,24.6-34.2,35.7-54c8.6-15.3,21.7-44.2,41.4-47.3
								c-3.7,13.3-10.8,24.9-16.8,39.2c-6.1,14.7-14.1,38.2-8,50c0.4,0.9,0.9,1.7,1.5,2.5c-2.5,4.8-4.7,9.5-6.1,13.9
								c-2.2,6.8-3.1,13.6-3,20.1c-1.2,0-2.4,0-3.6,0.1c-16.7,1.2-31.6,11.4-47.3,18.9C22.8,17.6,22.2,5.4,25-5.9"/>
						</g>
						<g id="g204" transform="translate(415.1367,472.4888)">
							<path id="path206" class="st1" d="M25-5.9C35.8,0,39.3,9.1,39.2,19.9C25.5,23.5,16,36.5,8.9,46.6
								c-7.4,10.3-16.8,23.5-23.4,36c-0.5-0.8-1-1.6-1.5-2.4c-6.1-11.8,1.9-35.4,8-50C-2,15.8,5.1,4.2,8.8-9.1
								C13.8-9.9,19.2-9,25-5.9"/>
						</g>
						<g id="g208" transform="translate(456.1406,98.7441)">
							<path id="path210" class="st1" d="M25-5.9C10.2-2-4.7,5.1-18.2,17.5c-2.2,2.1-4.4,4.3-6.4,6.6c-9-5.6-19.4-9.8-30.3-12.4
								c0.4-2.4,0.3-4.8-0.2-6.8C-58.7-9-82-9.5-100-8.1c-15.3,1.2-29.8,5-42.7,10.5c-0.2-7.5,2.6-14.1,6.3-18.6
								c17.9-21.5,67-16.9,97.7-24.8c10.6,3.8,22.3,5.6,32.4,10.7C5.1-24.4,16.5-15.9,25-5.9"/>
						</g>
						<g id="g212" transform="translate(305.8208,123.5566)">
							<path id="path214" class="st1" d="M25-5.9c-2.1,1.3-4.2,2.7-6.1,4.1C14.6-4.3,11.3-8,9.3-13.5c-1.1-3.1-1.6-6-1.7-8.9
								C20.5-27.9,35-31.8,50.3-33c18-1.4,41.4-0.9,45,13c0.5,2.1,0.6,4.4,0.2,6.8C70.7-19,43.4-16.9,25-5.9"/>
						</g>
						<g id="g216" transform="translate(469.4229,135.4795)">
							<path id="path218" class="st1" d="M25-5.9c-0.4,3.2-1.1,6.3-2,9.3c-2.9,1.5-5.7,3.1-8.4,4.7C6.2,13-2.9,18.4-9.9,24.3
								C-12.4,11.9-19.2,0.1-35-10.8c-0.9-0.6-1.9-1.3-2.8-1.9c2-2.3,4.1-4.5,6.4-6.6c13.5-12.3,28.4-19.5,43.2-23.3
								C21-31.7,26.7-18.9,25-5.9"/>
						</g>
						<g id="g220" transform="translate(453.6016,196.4287)">
							<path id="path222" class="st1" d="M25-5.9c0.4,0.7,0.8,1.4,1.2,2.1C17.1,8.6,9.8,24.4,5,37.4c-0.7,1.8-1.4,3.9-2,6
								C2.1,32.1,4.7,20.2,5.2,9.8C6-6.2,9-21.9,5.9-36.7c7-5.9,16.1-11.3,24.6-16.2c2.7-1.5,5.5-3.1,8.4-4.7
								C32.8-36.5,17.9-20.6,25-5.9"/>
						</g>
						<g id="g224" transform="translate(228.5923,541.6138)">
							<path id="path226" class="st1" d="M25-5.9c9.5-1.8,13.1-8.7,15.9-15.5c4.4,5.3,10.2,9.7,18.6,12.4c10,3.3,22.6-0.1,35-6.5
								c0.3,1.4,0.5,2.9,0.5,4.3C94.6,7,69.1,14.3,54.4,34.6C33.6,34.6,11,30.7-7,15.5c4.6-13.7-2.3-32.6,0.7-48.8
								c0.6-3.2,1.7-6.8,3.3-10.6c2.3,7.6,3.4,15.7,6.3,22.1C8.1-11.8,13.6-3.7,25-5.9"/>
						</g>
						<g id="g228" transform="translate(455.9277,277.7969)">
							<path id="path230" class="st1" d="M25-5.9C34.5-24.3,58.7-42.5,68.5-63c0.2-0.4,0.4-0.9,0.6-1.3
								c14.4,5.1,26.6,11.7,27.3,25.1c0.1,2.4-0.4,4.9-1.2,7.6C85.2-25.5,74.4-20,65.5-15.4C54.1-9.6,39.2-2.1,25-5.9"/>
						</g>
						<g id="g232" transform="translate(298.5112,536.228)">
							<path id="path234" class="st1" d="M25-5.9c0-1.4-0.1-2.9-0.5-4.3C37.9-17,51.2-27.2,61.1-36.3c4.2-3.8,9-8.9,13.8-14.4
								C75-34.4,63.2-20.1,56.5-6.9C49.4,7,40.6,19.7,37.1,33.8c-9.1,2.8-20.5,4-30.9,5C-0.6,39.5-7.9,40-15.5,40
								C-0.8,19.7,24.6,12.4,25-5.9"/>
						</g>
						<g id="g236" transform="translate(454.8066,198.5176)">
							<path id="path238" class="st1" d="M25-5.9C32.3,4.9,52.9,8.8,70.2,15c-0.2,0.4-0.4,0.9-0.6,1.3c-9.8,20.5-34,38.7-43.5,57.1
								c-4-1.1-8-3.1-11.8-6.2C5.6,59.8,2.5,50.8,1.7,41.3c0.7-2.1,1.3-4.2,2-6C8.6,22.3,15.9,6.5,25-5.9"/>
						</g>
						<g id="g240" transform="translate(221.1001,290.4609)">
							<path id="path242" class="st1" d="M25-5.9c0,0.4-0.1,0.8-0.2,1.2C12.2-7-0.1-5.6-9.6-2.6c3.1-4.1,6.1-8.4,7.8-13.2
								c2.7-7.4-0.8-25.4-8.4-35.4c7.7-5.4,15.9-9.8,24.3-12.7C17.8-44.2,27.5-25,25-5.9"/>
						</g>
						<g id="g244" transform="translate(260.0215,235.5391)">
							<path id="path246" class="st1" d="M25-5.9c0.3,3.4,1,6.4,2.1,9.1C33.2,18.4,53.6,36,69.8,51.9c13.4,13.2,40.5,35.5,33.9,56.5
								c-12.6-6.5-22.5-16.2-35.6-25.4c-13-9.2-34.3-22-47.1-18.6c-1.4,0.4-2.7,0.9-3.9,1.5c-3.9-3.2-7.8-6.1-11.6-8.3
								c-6.4-3.7-13-6-19.6-7.3c0.1-0.4,0.1-0.8,0.2-1.2c2.5-19.2-7.2-38.4-10.9-58c1.1-0.4,2.2-0.8,3.3-1.1
								C-1.2-16.1,13.1-13,25-5.9"/>
						</g>
						<g id="g248" transform="translate(457.3682,569.1226)">
							<path id="path250" class="st1" d="M25-5.9c-2.8,13.8-8,25.7-16.8,31.5c-4,2.6-8,4.4-11.8,5.4c-1.6-2.5-3.2-4.9-4.4-7.2
								c-4.8-9.8-7.9-20.9-8.2-29.6C-0.7-7.6,15.1-10.5,25-5.9"/>
						</g>
						<g id="g252" transform="translate(457.3682,569.1226)">
							<path id="path254" class="st1" d="M25-5.9c-9.9-4.6-25.8-1.8-41.2,0.1c0-0.2,0-0.4,0-0.6C-16.7-29-3.2-56-3-76.8
								c4.4-1.2,9.2-1.4,14.6-0.2c5.3,1.2,9.6,3.3,13.2,6c1.3,7.4,2.3,14.4,2.7,20.2C28.3-37.3,28-20.6,25-5.9"/>
						</g>
						<g id="g256" transform="translate(196.2896,493.0703)">
							<path id="path258" class="st1" d="M25-5.9c1.9,3.2,3.3,6.8,4.4,10.5c-1.6,3.8-2.7,7.4-3.3,10.6c-3.1,16.2,3.8,35-0.7,48.8
								c-1.1-0.9-2.1-1.8-3.1-2.8C3.5,43.3-6.1,9.3-2.7-20.9C8.8-18.9,21.5-11.7,25-5.9"/>
						</g>
						<g id="g260" transform="translate(301.7505,366.8105)">
							<path id="path262" class="st1" d="M25-5.9C22-17.1,13.3-26.7,6.3-34.4c-8.7-9.6-19.9-21.8-30.9-31c1.2-0.6,2.5-1.1,3.9-1.5
								c12.8-3.4,34.1,9.5,47.1,18.6c13,9.2,23,18.9,35.6,25.4c-1.1,3.6-3.2,7.1-6.5,10.6C46.4-2.8,36.1-2.3,25-5.9"/>
						</g>
						<g id="g264" transform="translate(348.3843,491.4048)">
							<path id="path266" class="st1" d="M25-5.9c6.4-7.3,12.9-15.4,18.4-22.6c10.9-14.4,19.8-29.2,31.7-36.7
								c3.3,9.6,4.1,20.6,1.7,32.3c-0.3,1.6-0.7,3.2-1.2,4.8C55.9-25,42.8,3.9,34.2,19.3C23,39.1,11.4,63.3-1.5,73.3
								c-3,2.3-6.9,4-11.3,5.4C-9.3,64.5-0.5,51.8,6.6,37.9C13.3,24.8,25.1,10.4,25-5.9"/>
						</g>
						<g id="g268" transform="translate(398.4331,432.1353)">
							<path id="path270" class="st1" d="M25-5.9c0.2-0.1,0.3-0.2,0.5-0.3c12.4-7.6,28.4-8.5,43.2-2.6C67.4,5,73.2,20.9,77.6,38.1
								c2.2,8.6,4.4,18.6,6.1,28c-3.6-2.7-7.9-4.8-13.2-6c-5.3-1.2-10.2-1-14.6,0.2c0.1-10.8-3.3-19.8-14.2-25.7
								c-5.8-3.2-11.2-4-16.2-3.3c0.4-1.6,0.8-3.1,1.2-4.8C29.1,14.8,28.3,3.7,25-5.9"/>
						</g>
						<g id="g272" transform="translate(742.834,434.8857)">
							<path id="path274" class="st1" d="M25-5.9c-0.5,0.4-0.9,0.8-1.4,1.2c-1.4-3.8-3.1-6.9-5.4-8.6c-2.5-31.6,13-80.7-5-103
								c-3.7-4.5-9.5-8.6-16.9-9.9c-2.7-11.8-6.8-22.6-11.7-31.7c-7.2-13.3-17-27.9-30.5-40.1c2-11.3,1.8-23.3,0.1-34.2
								c-2.3-14.4-10.7-27.6-12.4-41.8c10,2.1,24,12,32.3,21.2c29.3,32.6,45.5,79,54.2,120.8C37.6-88.3,39.3-42.9,25-5.9"/>
						</g>
						<g id="g276" transform="translate(713.7402,474.4272)">
							<path id="path278" class="st1" d="M25-5.9C17.6,2.3,8.1,10-2,15.6c1-18.2-2.2-37.7-13.2-57c-2-3.5-4.3-6.8-6.8-10
								c0.1-0.1,0.2-0.2,0.3-0.3c7.4-7.1,13.7-15.9,18.6-25.6c2.9,1.3,5.7,2.1,8.4,2c14.3-0.5,19.9-23.2,22.4-41.1
								c2.5-17.1,1.3-34-2.1-49.3c7.4,1.3,13.2,5.3,16.9,9.9c18,22.3,2.5,71.4,5,103c2.2,1.7,4,4.8,5.3,8.6
								C40.8-34,35.7-17.6,25-5.9"/>
						</g>
						<g id="g280" transform="translate(631.0488,325.5195)">
							<path id="path282" class="st1" d="M25-5.9c5.3-5.1,11.4-10,20.8-7.7C57.1-10.9,58.9-1.3,59,9.8c0.2,9.8-4.3,21.3-3.6,32.2
								c-6.8,5.8-16.1,11.1-26.7,14c-0.5-1.2-1-2.3-1.4-3.5C21.4,35,30.7,13.5,25-5.9"/>
						</g>
						<g id="g284" transform="translate(661.4512,373.4434)">
							<path id="path286" class="st1" d="M25-5.9c0,0.6,0.1,1.2,0.2,1.8c1,7.9,12.6,22.4,24,27.7c-5,9.7-11.2,18.5-18.6,25.6
								c-0.1,0.1-0.2,0.2-0.3,0.3C19.3,35.6,5,23.8-1.7,8.2C9,5.2,18.2-0.1,25-5.9"/>
						</g>
						<g id="g288" transform="translate(705.0996,314.4609)">
							<path id="path290" class="st1" d="M25-5.9C19.2-5,14.9-2.5,11.5,1.2C2.3-17.9-14.3-30.5-31.3-39.4c0.1-0.1,0.2-0.1,0.3-0.2
								c13.1-7.2,20.2-21.7,23-37.9C5.5-65.3,15.3-50.7,22.5-37.4c4.9,9.1,9,19.9,11.7,31.7C31.3-6.2,28.3-6.3,25-5.9"/>
						</g>
						<g id="g292" transform="translate(716.3867,363.8545)">
							<path id="path294" class="st1" d="M25-5.9C22.4,12,16.9,34.7,2.6,35.3c-2.7,0.1-5.5-0.7-8.4-2c12.3-24,16.5-53.2,8.9-74.5
								c-0.9-2.4-1.8-4.7-2.9-6.9c3.4-3.7,7.7-6.3,13.5-7.1c3.3-0.5,6.3-0.3,9.1,0.1C26.3-39.9,27.5-23,25-5.9"/>
						</g>
						<g id="g296" transform="translate(661.4512,373.4434)">
							<path id="path298" class="st1" d="M25-5.9c-0.7-10.9,3.8-22.4,3.6-32.2c-0.2-11.1-2-20.8-13.2-23.4C6-63.7-0.1-58.9-5.4-53.8
								c-1.9-6.4-5.4-12.5-11.7-18.2c-6-5.4-14.9-7.9-25-8.4c11.3-10.3,34.4-7.2,54.4-18c17,8.9,33.6,21.5,42.8,40.6
								c-9.6,10.5-11.8,29.9-21.5,42.9C31.5-11.9,28.6-8.8,25-5.9"/>
						</g>
						<g id="g300" transform="translate(661.6162,375.2676)">
							<path id="path302" class="st1" d="M25-5.9c-0.1-0.6-0.1-1.2-0.2-1.8c3.6-3,6.5-6.1,8.7-9c9.7-13,11.8-32.4,21.5-42.9
								c1.1,2.2,2,4.5,2.9,6.9c7.6,21.4,3.4,50.6-8.9,74.5C37.6,16.6,26,2,25-5.9"/>
						</g>
						<g id="g304" transform="translate(143.3013,325.9961)">
							<path id="path306" class="st1" d="M25-5.9c2.9,23.6,16.9,43.7,30.3,59.5c-3.9-0.4-7.9-0.5-12-0.2
								C30.6,54.5,19.6,62.3,11,73.1C0.5,52.6-2.4,30.5-2.8,11.9c-0.1-6,0.3-12.4,1.3-19c2.3,1.5,4.9,2.8,8,3.7
								C13.5-1.3,19.5-2.7,25-5.9"/>
						</g>
						<g id="g308" transform="translate(643.2305,501.4614)">
							<path id="path310" class="st1" d="M25-5.9c-1.7-8.5-4-16.7-6.3-24.1c-3.4-10.8-7.3-22.7-12.6-31.2
								c13.6,0.7,27.4-3.1,42.3-17.3c2.5,3.2,4.8,6.5,6.8,10c11,19.3,14.2,38.8,13.2,57C54.3-3.7,38.6-0.3,25-5.9"/>
						</g>
						<g id="g312" transform="translate(596.627,346.3633)">
							<path id="path314" class="st1" d="M25-5.9c8.4-2.1,18.8-7.4,27.4-14.3c2.3-1.8,4.6-4.2,7-6.6c5.7,19.4-3.6,40.9,2.3,58.4
								c0.4,1.2,0.9,2.4,1.4,3.6c-7,1.9-14.6,2.8-22.6,2c-4-0.4-8.3-1.2-12.8-2.4C34.5,24.5,30.1,9.3,25-5.9"/>
						</g>
						<g id="g316" transform="translate(624.3496,446.1299)">
							<path id="path318" class="st1" d="M25-5.9c-1.9-3.1-4.1-5.8-6.4-7.8C6.2-24.3-20-30.5-41.7-37.3
								C-58.2-42.4-88.4-49-96.2-66.8c13.6,1.1,26.3,5.6,41.4,8.7c15.6,3.1,40.3,6.2,50.6-2.1c1.7-1.4,3.1-3,4.2-4.6
								c4.5,1.1,8.8,2,12.8,2.4c8,0.8,15.6-0.1,22.6-2c6.7,15.6,21.1,27.5,31.9,41.4C52.4-8.9,38.6-5.2,25-5.9"/>
						</g>
						<g id="g320" transform="translate(161.5957,385.2578)">
							<path id="path322" class="st1" d="M25-5.9c4.1-0.3,8.1-0.2,12,0.2c1.3,1.5,2.5,2.9,3.8,4.3C51,10.2,62.8,23.3,74,26.6
								c1.9,0.6,4,1,6.2,1.3c-16.3,4-30.8,11-40.4,31.1c-5.8-2.7-11.5-5.8-16.7-9.5C9.1,39.2-0.6,26.9-7.3,13.8
								C1.3,3,12.3-4.8,25-5.9"/>
						</g>
						<g id="g324" transform="translate(597.8271,470.7769)">
							<path id="path326" class="st1" d="M25-5.9c-10-15.1-28.3-29.4-43.1-38.9c-2.5-1.6-5.4-3.3-8.6-5c12.4,0.7,24.9,6.4,36,9.2
								c14.5,3.7,28.2,9.2,42.2,9.9c5.3,8.6,9.2,20.4,12.6,31.2c2.3,7.4,4.7,15.6,6.3,24.1c-0.1,0-0.1,0-0.2-0.1
								C50.6,16.6,38.8-1.5,25-5.9"/>
						</g>
						<g id="g328" transform="translate(596.627,346.3633)">
							<path id="path330" class="st1" d="M25-5.9C19.6-22,13.4-38.1,18.9-48.4c1-1.9,2.4-3.6,3.9-5c10.1,0.5,19,3,25,8.4
								c6.3,5.7,9.8,11.8,11.7,18.2c-2.4,2.4-4.7,4.8-7,6.6C43.8-13.3,33.5-7.9,25-5.9"/>
						</g>
						<g id="g332" transform="translate(546.1328,426.9668)">
							<path id="path334" class="st1" d="M25-5.9C14.3-11.6,0.9-17.6-10.5-22.2C-26.2-28.5-41.7-33-52.1-41.3
								c8.2-4.2,18-6.7,28.7-6.6c1.8,0,3.6,0.1,5.3,0.2c7.8,17.8,38,24.4,54.5,29.5c21.7,6.8,47.9,13,60.3,23.6
								c2.4,2,4.5,4.7,6.4,7.8c-14-0.7-27.7-6.2-42.2-9.9C49.9,0.5,37.4-5.2,25-5.9"/>
						</g>
						<g id="g336" transform="translate(312.144,188.0693)">
							<path id="path338" class="st1" d="M25-5.9c-6.1-4-12.2-9-12-18.6c0.2-11.6,9.2-15.4,20-18c10.1-2.4,23.2-0.1,34-4
								c0.6-0.2,1.3-0.5,2-1c6.7,5.2,13.6,12.7,18.6,22c-2.1,1.8-4.3,3.4-6.6,4.8C65.3-11.1,42.6-15.3,25-5.9"/>
						</g>
						<g id="g340" transform="translate(320.1001,151.4609)">
							<path id="path342" class="st1" d="M25-5.9C14.2-3.3,5.2,0.6,5,12.1c-0.2,9.6,5.9,14.6,12,18.6C11,34,5.6,38.8,1.3,46.4
								C-3.5,55-3.1,66.8,0,79.3c-0.2,0-0.4-0.1-0.6-0.1c-15.5-3.8-18.6-24.3-30.1-42c4.6-23.2,13.2-50.1,35.4-66.8
								C16.8-22.3,36.4-24,51-17.1c3.1,1.5,6.6,3.6,10,6.3c-0.7,0.4-1.4,0.7-2,0.9C48.2-6,35.1-8.3,25-5.9"/>
						</g>
						<g id="g344" transform="translate(378.3823,210.0752)">
							<path id="path346" class="st1" d="M25-5.9C13.7-14.3,0-8.1-13.8,0.5c-3.9-7.6-11.2-16.3-19.5-23c-2.3-1.9-5.1-3.5-8-5.4
								c17.6-9.5,40.3-5.2,56-14.8c2.3-1.4,4.5-3,6.6-4.8c3.8,6.9,6.5,14.8,7.4,23.6c0.7,6.3,0.4,13.6-0.5,21.2
								C27.3-3.9,26.2-5,25-5.9"/>
						</g>
						<g id="g348" transform="translate(295.1177,236.6504)">
							<path id="path350" class="st1" d="M25-5.9c-3.1-12.5-3.6-24.4,1.3-32.9C30.6-46.3,36-51.2,42-54.4c2.8,1.9,5.7,3.5,8,5.4
								c8.3,6.7,15.5,15.4,19.5,23C53.7-16.2,37.7-3.3,25-5.9"/>
						</g>
						<g id="g352" transform="translate(266.4077,493.8726)">
							<path id="path354" class="st1" d="M25-5.9C18.4-0.4,11.6,8.3,6.7,17.5c-1.4,2.6-2.4,5.7-3.7,8.9C-9,11.9-10-9.5-20.6-23.2
								c5.1-4.2,11-7.7,17.8-10.3c4.4-1.7,9.5-2.9,15-3.9C8.6-26.3,15.6-15.9,25-5.9"/>
						</g>
						<g id="g356" transform="translate(512.4336,446.9297)">
							<path id="path358" class="st1" d="M25-5.9C40.8,7.5,53.2,34.9,71,48.9c0.1,0.1,0.2,0.2,0.3,0.2c-8.6,13.3-17.7,26-29.9,27.1
								c-6-13.4-10.6-29.9-14.2-42.7C24,21.9,19.9,6.9,25-5.9"/>
						</g>
						<g id="g360" transform="translate(331.2861,462.728)">
							<path id="path362" class="st1" d="M25-5.9C8,5.7-21,10.8-38.6,24.3c-0.4,0.3-0.8,0.7-1.3,1C-49.3,15.2-56.3,4.8-52.8-6.2
								c13.8-2.6,29.8-3.4,42.4-4C0.4-10.8,14.1-11.4,25-5.9"/>
						</g>
						<g id="g364" transform="translate(483.4082,441.4502)">
							<path id="path366" class="st1" d="M25-5.9c11.5-4.7,20.7-1.5,29,5.5c-5.1,12.7-1,27.8,2.2,39.4c3.6,12.8,8.2,29.3,14.2,42.7
								c-2,0.2-4,0.1-6.2-0.4c-12.9-2.9-26-24.1-33.3-38.2C23.9,29.4,19.6,16.6,11.8,5.3C14.4,0.6,18.5-3.2,25-5.9"/>
						</g>
						<g id="g368" transform="translate(143.3931,307.8926)">
							<path id="path370" class="st1" d="M25-5.9c-0.8,6.2-0.8,12.3-0.1,18.1c-5.5,3.2-11.5,4.6-18.6,2.5c-3-0.9-5.7-2.2-8-3.7
								C1.2-8.4,8.7-29.6,22-48.2c10.5-14.7,25.8-32.3,38.8-26.2c2.5,1.2,4.7,3.2,6.7,5.9C45.4-52.9,28-28.5,25-5.9"/>
						</g>
						<g id="g372" transform="translate(294.4849,236.5195)">
							<path id="path374" class="st1" d="M25-5.9c0.2,0.1,0.4,0.1,0.6,0.1C29.5,9.5,37.4,25.8,44.7,38c1.2,2,2.5,4.1,4,6.3
								C39,37.9,31,28.1,23,21C12,11.2,2.4,0.2-9.4-6.8c-1-10.2,1.1-22.8,3.1-34.3c0.4-2.2,0.8-4.4,1.2-6.7C6.4-30.2,9.6-9.7,25-5.9
								"/>
						</g>
						<g id="g376" transform="translate(357.5596,287.1348)">
							<path id="path378" class="st1" d="M25-5.9c-8.5-18.9-7.6-49.2-17.5-69.7c-0.2-0.3-0.3-0.7-0.5-1c13.8-8.6,27.5-14.8,38.8-6.4
								c1.2,0.9,2.3,2,3.3,3.2c-1.3,12.4-4.1,25.6-6.2,36.3C40.3-30.9,36.9-14.6,25-5.9"/>
						</g>
						<g id="g380" transform="translate(295.1177,236.6504)">
							<path id="path382" class="st1" d="M25-5.9c12.7,2.6,28.7-10.4,44.5-20.2c0.2,0.3,0.3,0.7,0.5,1c9.9,20.5,8.9,50.7,17.5,69.7
								c-3.3,2.5-7.4,4.3-12.2,5.3c-10.8,2.2-19.5-0.7-27.1-5.7c-1.5-2.2-2.9-4.3-4-6.3C36.7,25.6,28.8,9.4,25-5.9"/>
						</g>
						<g id="g384" transform="translate(216.8301,419.0195)">
							<path id="path386" class="st1" d="M25-5.9c15.9,2.2,38.6-1.9,58.5-4.2c18.6-2.2,52.7-9.4,65.1,8.7
								c-13,5.7-26.7,7.4-42.1,11.8c-15.3,4.3-38.7,12.9-44.1,25c-0.3,0.7-0.6,1.5-0.8,2.2c-5.4,1-10.6,2.3-15,3.9
								c-6.8,2.5-12.7,6.1-17.8,10.3c-0.6-0.8-1.2-1.5-1.9-2.2C16.1,37.6-0.2,32.3-15.4,25.2C-5.8,5.2,8.8-1.9,25-5.9"/>
						</g>
						<g id="g388" transform="translate(597.8271,470.7769)">
							<path id="path390" class="st1" d="M25-5.9c-3-1-6.1-1.3-9.4-0.7C3.9-4.4-4.8,10.8-14.1,25.3c-0.1-0.1-0.2-0.2-0.3-0.2
								c-17.8-14-30.1-41.4-46-54.8c1.8-4.5,4.8-8.8,9.4-12.5c7.8-6.2,16-8,24.3-7.5c3.1,1.7,6.1,3.4,8.6,5
								C-3.2-35.3,15.1-20.9,25-5.9"/>
						</g>
						<g id="g392" transform="translate(331.2861,462.728)">
							<path id="path394" class="st1" d="M25-5.9c-10.9-5.6-24.6-4.9-35.4-4.4c-12.6,0.6-28.5,1.4-42.4,4c0.2-0.7,0.5-1.5,0.8-2.2
								c5.4-12.1,28.8-20.6,44.1-25c15.3-4.4,29.1-6,42.1-11.8c2.2,3.2,3.7,7.1,4.4,11.9C40.2-20.5,34.4-12.2,25-5.9"/>
						</g>
						<g id="g396" transform="translate(442.0938,429.2651)">
							<path id="path398" class="st1" d="M25-5.9c0-0.5,0.1-1,0.1-1.4C27.1-22.3,37-35.9,52-43.6c10.4,8.3,25.9,12.8,41.5,19.1
								c11.4,4.6,24.9,10.6,35.6,16.4c-8.2-0.4-16.5,1.3-24.3,7.5c-4.6,3.7-7.6,7.9-9.4,12.5c-8.3-7-17.5-10.2-29-5.5
								C59.9,9,55.7,12.8,53.1,17.4c-1-1.4-2-2.8-3.1-4.2C42.9,4.2,34.2-2.2,25-5.9"/>
						</g>
						<g id="g400" transform="translate(672.1191,242.8613)">
							<path id="path402" class="st1" d="M25-5.9C11.4-18.2-6.1-28-28.3-31.5c-3.9-0.6-7.8-0.8-11.7-0.9c-0.9-9.9-3.7-20-8-29.6
								c3-1.4,5.5-3.2,7.2-5.5c8.6-11.5-5.6-30-18-43.3c-10.5-11.2-22.6-20.2-35-26.8c5.7-4.9,12.6-6.8,18.5-6.7
								c28.7,0.5,56.4,43.8,82.3,62.2c1.7-0.4,3.7-0.3,5.8,0.2C14.5-67.6,22.8-54.4,25.1-40C26.9-29.2,27-17.1,25-5.9"/>
						</g>
						<g id="g404" transform="translate(559.3516,216.6973)">
							<path id="path406" class="st1" d="M25-5.9c4-9.6,5.5-19.5,5.4-27.9c7.8,3.2,24,2.9,34.4-2c4.2,9.6,7.1,19.7,8,29.6
								C56.7-6.4,40.2-3.2,25-5.9"/>
						</g>
						<g id="g408" transform="translate(546.0996,132.4609)">
							<path id="path410" class="st1" d="M25-5.9c-0.7-0.2-1.4-0.4-2-0.7c-0.4-4.6,0.5-9.1,3.4-13.7c1.7-2.8,3.7-5,5.9-6.9
								c12.4,6.7,24.5,15.6,35,26.8C79.6,13,93.8,31.5,85.2,43c-1.7,2.2-4.2,4-7.2,5.4C67.1,23.5,46.7,1.6,25-5.9"/>
						</g>
						<g id="g412" transform="translate(564.7422,188.8193)">
							<path id="path414" class="st1" d="M25-5.9c0-4.4-0.5-8.4-1.4-11.8C19.8-33.8,5.6-48.3,4.3-62.9c0.7,0.2,1.4,0.4,2,0.7
								c21.7,7.5,42.1,29.4,53,54.3C49-3,32.8-2.7,25-5.9"/>
						</g>
						<g id="g416" transform="translate(649.1016,280.7441)">
							<path id="path418" class="st1" d="M25-5.9c-0.1,0.1-0.2,0.1-0.3,0.2c-7.4-3.9-14.9-7.1-21.9-9.8c-10.9-4.2-23-8.8-33.1-9.9
								C-21-35.7-15-49-17-70.1c0,0,0-0.1,0-0.1c3.9,0.1,7.9,0.3,11.7,0.9C17-65.9,34.4-56.1,48-43.7C45.2-27.6,38.1-13,25-5.9"/>
						</g>
						<g id="g420" transform="translate(593.7207,261.2402)">
							<path id="path422" class="st1" d="M25-5.9c-3.3-0.3-6.4-0.3-9.2,0.2c-16.1,3-37.3,19.5-56.2,32.2
								c-15.4,10.3-42.1,32-61.3,22.4c9-10.9,20.5-18.6,32.2-29.4c9.6-8.8,22.8-22.6,26.8-34.6c7.4-4.6,14.3-9.4,19.4-14.5
								c6.4-6.3,10.9-13.5,13.9-20.9c15.2,2.7,31.7-0.5,47.7-0.3c0,0,0,0.1,0,0.1C40.3-29.5,34.4-16.2,25-5.9"/>
						</g>
						<g id="g424" transform="translate(540.6465,307.8516)">
							<path id="path426" class="st1" d="M25-5.9C21.2-4.6,16.9-2.9,12.4-1c8.2-11,22-17.7,32.1-25.3c11.8-8.8,24.4-16,33.6-26.2
								c10.2,1.1,22.2,5.7,33.1,9.9c7,2.7,14.5,5.9,21.9,9.8C113.2-22,90-25.1,78.8-14.8C61.5-15.7,40.6-11,25-5.9"/>
						</g>
						<g id="g428" transform="translate(560.0996,287.4609)">
							<path id="path430" class="st1" d="M25-5.9C14.9,1.7,1.1,8.5-7.1,19.4c-10.4,4.5-22.1,10.4-31.9,15.7
								c-15.8,8.6-29.8,18.4-43.6,20.4c1.1-10,4.9-20.2,11.9-29.8c0.8-1.1,1.6-2.1,2.5-3.2c19.3,9.6,45.9-12,61.3-22.4
								c18.9-12.7,40.2-29.1,56.2-32.2c2.8-0.5,5.9-0.6,9.2-0.2C49.4-21.9,36.8-14.7,25-5.9"/>
						</g>
						<g id="g432" transform="translate(176.6001,336.127)">
							<path id="path434" class="st1" d="M25-5.9c7.4,6.3,15.1,4.8,22.2,2.6c-2.4,8-2.7,16.7,1.3,26.7c3.7,9.2,13.4,16.4,25.3,21.8
								c-0.3,0.2-0.6,0.5-0.9,0.7c-12.5,9.6-30.2-0.4-50.9-2.5C8.6,27.7-5.4,7.6-8.3-16c11.6-6.7,21.1-21.3,34.1-28.4
								c2.6-1.4,5.7-2.7,9.1-3.8c-4,5.3-8.3,10.3-10.9,15.5C19.1-22.8,16.2-13.4,25-5.9"/>
						</g>
						<g id="g436" transform="translate(225.3862,387.209)">
							<path id="path438" class="st1" d="M25-5.9C13.1-11.2,3.4-18.4-0.3-27.6c-4-10-3.7-18.7-1.3-26.7c3.2-1,6.2-2.1,9-2.6
								c10.2-2,21.3-2.1,29.6-0.4C34.3-38,35.3-15.1,25-5.9"/>
						</g>
						<g id="g440" transform="translate(524.791,348.3457)">
							<path id="path442" class="st1" d="M25-5.9C45.3-10,74.5-2.5,96.5-7.8c0.1,0,0.2-0.1,0.3-0.1c5.1,15.2,9.5,30.4,2.7,40.7
								c-14.2-3.6-30-10.4-42.2-15.6C46.2,12.5,31.7,6.3,25-5.9"/>
						</g>
						<g id="g444" transform="translate(502.4941,367.6387)">
							<path id="path446" class="st1" d="M25-5.9C28.5-17.7,36.7-23,47.3-25.1C54-13,68.5-6.8,79.6-2c12.3,5.2,28,12,42.2,15.6
								c-1.1,1.7-2.5,3.2-4.2,4.6c-10.3,8.3-35,5.2-50.6,2.1c-15.1-3-27.8-7.6-41.4-8.7C23.5,6.7,23,1,25-5.9"/>
						</g>
						<g id="g448" transform="translate(224.5073,387.9404)">
							<path id="path450" class="st1" d="M25-5.9c0.3-0.2,0.6-0.5,0.9-0.7C40.1-0.2,57.6,3.7,71.6,5.7C76.9,6.4,83.3,6.8,90.2,7
								c-12.5,9.5-30.3,9.6-44.3,12.6c-9.6,2.1-19.3,3.4-28.5,5.6c-2.2-0.3-4.3-0.7-6.3-1.3C-0.1,20.6-11.9,7.6-22.1-4
								c-1.2-1.4-2.5-2.9-3.8-4.3C-5.2-6.2,12.6,3.8,25-5.9"/>
						</g>
						<g id="g452" transform="translate(225.3862,387.209)">
							<path id="path454" class="st1" d="M25-5.9c10.3-9.2,9.3-32.1,12.1-51.4c0.6,0.1,1.1,0.2,1.7,0.4
								c21.3,5.3,43.2,24.3,62.7,30.6c1.8,6.5,1.6,13.5-1.8,21c-2.6,5.7-6.2,9.8-10.3,13C82.5,7.5,76,7.1,70.7,6.4
								C56.7,4.5,39.3,0.6,25-5.9"/>
						</g>
						<g id="g456" transform="translate(590.5273,303.8574)">
							<path id="path458" class="st1" d="M25-5.9c-5.6,10.3,0.7,26.4,6.1,42.5c-0.1,0-0.2,0.1-0.3,0.1c-22,5.2-51.2-2.2-71.5,1.9
								c-2.3-4.2-3.7-9.1-3.7-14.9c0-8.5,2.7-15.1,6.9-20.7c4.5-2,8.8-3.6,12.6-4.9c15.6-5.1,36.5-9.9,53.8-9
								C27.4-9.4,26.1-7.8,25-5.9"/>
						</g>
						<g id="g460" transform="translate(469.0713,391.5557)">
							<path id="path462" class="st1" d="M25-5.9c-0.9-0.7-1.8-1.5-2.6-2.3C12-18,6.8-32.9,8.5-48.6C22.3-50.6,36.4-60.4,52.1-69
								c9.7-5.3,21.4-11.2,31.9-15.7c-4.2,5.6-6.9,12.3-6.9,20.7c0,5.8,1.4,10.7,3.7,14.9c-10.6,2.1-18.8,7.4-22.3,19.3
								c-2,6.8-1.5,12.6,0.6,17.5c-1.8-0.1-3.5-0.2-5.3-0.2C43-12.5,33.2-10.1,25-5.9"/>
						</g>
						<g id="g464" transform="translate(374.7129,168.4814)">
							<path id="path466" class="st1" d="M25-5.9c-5-9.3-11.9-16.7-18.6-22c7.8-4.4,18.5-18.7,20.2-30.2
								c10.9,2.6,21.3,6.8,30.3,12.4C45.7-32.7,37.5-16.5,25-5.9"/>
						</g>
						<g id="g468" transform="translate(356.1152,146.5137)">
							<path id="path470" class="st1" d="M25-5.9c-3.5-2.7-6.9-4.8-10-6.3C0.3-19-19.2-17.3-31.4-24.7c1.9-1.5,4-2.8,6.1-4.1
								C-6.9-39.9,20.4-42,45.2-36.1C43.5-24.5,32.8-10.3,25-5.9"/>
						</g>
						<g id="g472" transform="translate(434.5371,165.6074)">
							<path id="path474" class="st1" d="M25-5.9C20.9-2.4,17.6,1.2,15.6,5c-7.7,14.4-8.1,41.3-10,64c-1.5,18.2-1.3,51.6-19.8,61.4
								c-2.7-13.8-1.3-27.5-2.2-43.3c-0.8-14.1-3.4-35.1-11.4-45.2c0.8-7.6,1.1-14.9,0.5-21.2c-0.9-8.8-3.7-16.7-7.4-23.6
								c12.5-10.7,20.7-26.9,31.9-39.8c1,0.6,1.9,1.2,2.8,1.9C15.7-30,22.5-18.2,25-5.9"/>
						</g>
						<g id="g476" transform="translate(433.792,212.125)">
							<path id="path478" class="st1" d="M25-5.9c-0.5,10.4-3.1,22.3-2.3,33.6C19,39.9,15.5,56,13.2,69.3
								c-3,17.4-4.1,34.2-10.8,46.3c-6.8-7.1-12.1-16.4-15-27.6c-0.4-1.4-0.6-2.8-0.9-4.2C5,74.1,4.8,40.6,6.3,22.5
								c1.9-22.7,2.3-49.6,10-64c2-3.8,5.4-7.4,9.4-10.9C28.8-37.6,25.9-21.9,25-5.9"/>
						</g>
						<g id="g480" transform="translate(298.0288,531.9531)">
							<path id="path482" class="st1" d="M25-5.9C12.6,0.5,0,4-10,0.7C-18.3-2-24.2-6.4-28.6-11.7c1.3-3.2,2.3-6.3,3.7-8.9
								c4.9-9.2,11.7-18,18.3-23.4C5.6-30.9,22-18.5,25-5.9"/>
						</g>
						<g id="g484" transform="translate(457.0918,307.0098)">
							<path id="path486" class="st1" d="M25-5.9c-7-10.1-6.1-19.7-1.2-29.2c14.2,3.8,29.1-3.7,40.4-9.6
								c8.9-4.6,19.8-10.1,29.7-16.2c-4.1,12-17.3,25.7-26.9,34.6C55.4-15.5,43.9-7.8,34.9,3.1C31.3,1.3,28-1.6,25-5.9"/>
						</g>
						<g id="g488" transform="translate(334.5986,505.7681)">
							<path id="path490" class="st1" d="M25-5.9c-10,9.1-23.2,19.3-36.6,26.2c-3-12.6-19.4-25.1-31.6-38.1c0.4-0.4,0.8-0.7,1.3-1
								c17.6-13.5,46.6-18.6,63.6-30.1c5.5,2.8,10.3,7.2,13.6,14c2.5,5.1,3.5,9.9,3.5,14.7C34-14.7,29.2-9.7,25-5.9"/>
						</g>
						<g id="g492" transform="translate(452.5859,348.8594)">
							<path id="path494" class="st1" d="M25-5.9c-0.3,0.1-0.6,0.1-0.9,0.1C9.6-3.9-5.3-9.6-16.4-21.2c6.7-12,7.8-28.8,10.8-46.3
								C-3.3-80.7,0.2-96.9,4-109c0.7,9.5,3.8,18.5,12.6,25.9c3.8,3.2,7.8,5.2,11.8,6.2c-4.9,9.5-5.8,19.1,1.2,29.2
								c3,4.3,6.3,7.1,9.9,8.9c-0.8,1-1.7,2.1-2.5,3.2C29.9-26.1,26.1-15.8,25-5.9"/>
						</g>
						<g id="g496" transform="translate(194.3105,280.5742)">
							<path id="path498" class="st1" d="M25-5.9c-1.8,4.7-4.7,9.1-7.8,13.2c-3.5,1.1-6.6,2.4-9.1,3.8c-13,7.1-22.5,21.7-34.1,28.4
								c-0.7-5.8-0.7-11.9,0.1-18.1c3-22.7,20.4-47,42.6-62.7C24.2-31.3,27.7-13.2,25-5.9"/>
						</g>
						<g id="g500" transform="translate(318.2407,286.707)">
							<path id="path502" class="st3" d="M25-5.9c7.1,10.4,17.1,22.8,25.8,32.6C62.6,40.1,75,51.6,80.1,64.4
								C70.3,65.4,59.6,63.8,49,59c-1.2-0.5-2.3-1.1-3.5-1.7C52.1,36.2,25,14,11.6,0.8C-4.6-15.2-25-32.8-31.2-47.9
								c-1.1-2.7-1.7-5.8-2.1-9.1C-21.3-50-11.7-39-0.7-29.2C7.3-22.1,15.2-12.2,25-5.9"/>
						</g>
						<g id="g504" transform="translate(381.1001,304.4609)">
							<path id="path506" class="st1" d="M25-5.9C12.8-6.7,5.9-13.4,1.5-23.2c11.9-8.7,15.3-25.1,17.9-37.6
								c2.2-10.7,4.9-23.8,6.2-36.3c8,10.1,10.6,31.1,11.4,45.2c0.9,15.8-0.5,29.5,2.2,43.3C35.4-6.5,30.7-5.5,25-5.9"/>
						</g>
						<g id="g508" transform="translate(411.1602,333.5625)">
							<path id="path510" class="st1" d="M25-5.9c-0.2,0.5-0.5,0.9-0.8,1.4c-7.5,12.4-21.2,20.6-37,22.1
								C-17.9,4.7-30.4-6.8-42.1-20.1c-8.7-9.9-18.7-22.2-25.8-32.6c7.6,5,16.4,7.9,27.1,5.7c4.9-1,8.9-2.8,12.2-5.3
								C-24.2-42.5-17.3-35.8-5-35c5.7,0.4,10.3-0.6,14.2-2.7c0.3,1.4,0.6,2.8,0.9,4.2C12.9-22.3,18.2-13,25-5.9"/>
						</g>
						<g id="g512" transform="translate(289.6494,400.8027)">
							<path id="path514" class="st1" d="M25-5.9c10.1,0.3,21,0.1,30.5-0.3C73.2-7,89.9-9.6,103.1-5.6C97.6,2.6,89.7,9.9,79.4,15.1
								c-1.2,0.6-2.4,1.1-3.6,1.7C63.4-1.3,29.3,5.9,10.7,8.1c-19.8,2.3-42.6,6.4-58.5,4.2c9.2-2.2,18.9-3.5,28.5-5.6
								C-5.3,3.7,12.6,3.6,25-5.9"/>
						</g>
						<g id="g516" transform="translate(373.3545,357)">
							<path id="path518" class="st1" d="M25-5.9c0.2,0.4,0.3,0.8,0.5,1.2c4.9,13.7,2.7,29.5-6.1,42.8c-13.2-4-29.9-1.4-47.6-0.6
								c-9.5,0.5-20.4,0.6-30.5,0.3c4.1-3.1,7.7-7.3,10.3-13c3.5-7.5,3.6-14.5,1.8-21C-35.5,7.5-25.2,7-16.2-2.4
								c3.3-3.5,5.4-7,6.5-10.6c1.1,0.6,23.6,7.6,24.8,8.1C25.8-0.1,15.2-4.9,25-5.9"/>
						</g>
						<g id="g520" transform="translate(367.707,401.0371)">
							<path id="path522" class="st1" d="M25-5.9c0.5,0.1,0.9,0.3,1.4,0.4c13.5,4.6,24.3,15.9,29.3,30.7
								C43.9,32.7,35,47.5,24.1,61.9c-5.5,7.2-12,15.3-18.4,22.6c0-4.7-1.1-9.6-3.5-14.7c-3.3-6.8-8.1-11.2-13.6-14
								C-2,49.5,3.8,41.2,2.1,28.5c-0.7-4.9-2.2-8.8-4.4-11.9c1.2-0.5,2.4-1.1,3.6-1.7C11.6,9.6,19.6,2.4,25-5.9"/>
						</g>
						<g id="g524" transform="translate(466.4434,389.2988)">
							<path id="path526" class="st1" d="M25-5.9c0.8,0.8,1.7,1.5,2.6,2.3C12.7,4.1,2.8,17.6,0.8,32.7c-0.1,0.5-0.1,1-0.1,1.4
								c-14.8-6-30.7-5-43.2,2.5c-0.2,0.1-0.3,0.2-0.5,0.3c-5-14.8-15.8-26.1-29.3-30.7c-0.5-0.2-0.9-0.3-1.4-0.4
								c8.8-13.3,11-29.1,6.1-42.8c-0.2-0.4-0.3-0.8-0.5-1.2c15.8-1.5,29.5-9.7,37-22.1c0.3-0.4,0.5-0.9,0.8-1.4
								c11.1,11.6,26,17.2,40.5,15.4c0.3,0,0.6-0.1,0.9-0.1C9.5-30.6,14.6-15.8,25-5.9"/>
						</g>
					</g>
				</g>
			</g>
		</g>
	</g>
</g>
</svg>
